<svg xmlns="http://www.w3.org/2000/svg" width="96" height="96" viewBox="0 0 96 96" fill="none">
  <rect x="6" y="6" width="84" height="84" rx="24" fill="#0B0B0F" stroke="#F6C445" stroke-width="4"/>
  <path d="M32 64V32H44.5C49.2 32 52.8 33.1 55.3 35.3C57.9 37.5 59.2 40.6 59.2 44.6C59.2 48.6 57.9 51.7 55.3 53.9C52.8 56.1 49.2 57.2 44.5 57.2H40.4V64H32ZM40.4 49H44.5C46.5 49 48 48.6 49 47.8C50.1 47 50.6 45.8 50.6 44.2C50.6 42.6 50.1 41.4 49 40.6C48 39.8 46.5 39.4 44.5 39.4H40.4V49Z" fill="#F6C445"/>
  <path d="M61.2 64V56.7L68.2 49.7C70.5 47.4 72.3 45.6 73.6 44.3C74.9 43 75.8 42 76.3 41.3C76.8 40.6 77.1 39.9 77.1 39.2C77.1 38.2 76.8 37.4 76.1 36.9C75.4 36.4 74.5 36.2 73.4 36.2C72.2 36.2 71.2 36.5 70.5 37.1C69.8 37.7 69.4 38.5 69.2 39.6H61.6C61.8 37.1 62.5 35 63.8 33.3C65.1 31.6 66.8 30.3 69 29.5C71.2 28.7 73.7 28.3 76.4 28.3C79 28.3 81.3 28.6 83.2 29.4C85.2 30.1 86.7 31.2 87.7 32.7C88.8 34.2 89.3 36 89.3 38.1C89.3 39.8 89 41.3 88.4 42.7C87.8 44 86.9 45.3 85.6 46.6C84.3 47.9 82.7 49.5 80.8 51.3L76.4 55.7H89.7V64H61.2Z" fill="#F6C445"/>
  <rect x="6" y="6" width="84" height="84" rx="24" stroke="#0B0B0F" stroke-width="0.5" opacity="0.15"/>
</svg>

